<svg width="705" height="403" viewBox="0 0 705 403" fill="none" xmlns="http://www.w3.org/2000/svg">
<g clip-path="url(#clip0_402_45)">
<path d="M705 0H0V403H705V0Z" fill="black"/>
<path d="M705 0H0V403H705V0Z" fill="#00C5DF" fill-opacity="0.242746"/>
<mask id="mask0_402_45" style="mask-type:luminance" maskUnits="userSpaceOnUse" x="0" y="0" width="705" height="403">
<path d="M705 0H0V403H705V0Z" fill="white"/>
</mask>
<g mask="url(#mask0_402_45)">
<g filter="url(#filter0_f_402_45)">
<path d="M727.032 138.783H237.057V370.004H727.032V138.783Z" fill="#168F5D"/>
</g>
</g>
<g style="mix-blend-mode:overlay">
<path d="M705 0H0V403H705V0Z" fill="#808080"/>
</g>
<path d="M266.444 79L260.9 69.208H258.524V79H253.484V53.872H262.916C264.86 53.872 266.516 54.22 267.884 54.916C269.252 55.588 270.272 56.512 270.944 57.688C271.64 58.84 271.988 60.136 271.988 61.576C271.988 63.232 271.508 64.732 270.548 66.076C269.588 67.396 268.16 68.308 266.264 68.812L272.276 79H266.444ZM258.524 65.428H262.736C264.104 65.428 265.124 65.104 265.796 64.456C266.468 63.784 266.804 62.86 266.804 61.684C266.804 60.532 266.468 59.644 265.796 59.02C265.124 58.372 264.104 58.048 262.736 58.048H258.524V65.428ZM275.25 68.956C275.25 66.94 275.646 65.152 276.438 63.592C277.255 62.032 278.347 60.832 279.715 59.992C281.107 59.152 282.655 58.732 284.359 58.732C285.847 58.732 287.143 59.032 288.247 59.632C289.375 60.232 290.275 60.988 290.947 61.9V59.056H296.023V79H290.947V76.084C290.299 77.02 289.399 77.8 288.247 78.424C287.119 79.024 285.811 79.324 284.323 79.324C282.643 79.324 281.107 78.892 279.715 78.028C278.347 77.164 277.255 75.952 276.438 74.392C275.646 72.808 275.25 70.996 275.25 68.956ZM290.947 69.028C290.947 67.804 290.707 66.76 290.227 65.896C289.747 65.008 289.099 64.336 288.283 63.88C287.467 63.4 286.591 63.16 285.655 63.16C284.719 63.16 283.855 63.388 283.062 63.844C282.271 64.3 281.623 64.972 281.119 65.86C280.639 66.724 280.399 67.756 280.399 68.956C280.399 70.156 280.639 71.212 281.119 72.124C281.623 73.012 282.271 73.696 283.062 74.176C283.879 74.656 284.743 74.896 285.655 74.896C286.591 74.896 287.467 74.668 288.283 74.212C289.099 73.732 289.747 73.06 290.227 72.196C290.707 71.308 290.947 70.252 290.947 69.028ZM305.985 61.936C306.633 61.024 307.521 60.268 308.649 59.668C309.801 59.044 311.109 58.732 312.573 58.732C314.277 58.732 315.813 59.152 317.181 59.992C318.573 60.832 319.665 62.032 320.457 63.592C321.273 65.128 321.681 66.916 321.681 68.956C321.681 70.996 321.273 72.808 320.457 74.392C319.665 75.952 318.573 77.164 317.181 78.028C315.813 78.892 314.277 79.324 312.573 79.324C311.109 79.324 309.813 79.024 308.685 78.424C307.581 77.824 306.681 77.068 305.985 76.156V88.504H300.945V59.056H305.985V61.936ZM316.533 68.956C316.533 67.756 316.281 66.724 315.777 65.86C315.297 64.972 314.649 64.3 313.833 63.844C313.041 63.388 312.177 63.16 311.241 63.16C310.329 63.16 309.465 63.4 308.649 63.88C307.857 64.336 307.209 65.008 306.705 65.896C306.225 66.784 305.985 67.828 305.985 69.028C305.985 70.228 306.225 71.272 306.705 72.16C307.209 73.048 307.857 73.732 308.649 74.212C309.465 74.668 310.329 74.896 311.241 74.896C312.177 74.896 313.041 74.656 313.833 74.176C314.649 73.696 315.297 73.012 315.777 72.124C316.281 71.236 316.533 70.18 316.533 68.956ZM327.899 56.68C327.011 56.68 326.267 56.404 325.667 55.852C325.091 55.276 324.803 54.568 324.803 53.728C324.803 52.888 325.091 52.192 325.667 51.64C326.267 51.064 327.011 50.776 327.899 50.776C328.787 50.776 329.519 51.064 330.095 51.64C330.695 52.192 330.995 52.888 330.995 53.728C330.995 54.568 330.695 55.276 330.095 55.852C329.519 56.404 328.787 56.68 327.899 56.68ZM330.383 59.056V79H325.343V59.056H330.383ZM334.067 68.956C334.067 66.94 334.463 65.152 335.255 63.592C336.071 62.032 337.175 60.832 338.567 59.992C339.959 59.152 341.507 58.732 343.211 58.732C344.507 58.732 345.743 59.02 346.919 59.596C348.095 60.148 349.031 60.892 349.727 61.828V52.36H354.839V79H349.727V76.048C349.103 77.032 348.227 77.824 347.099 78.424C345.971 79.024 344.663 79.324 343.175 79.324C341.495 79.324 339.959 78.892 338.567 78.028C337.175 77.164 336.071 75.952 335.255 74.392C334.463 72.808 334.067 70.996 334.067 68.956ZM349.763 69.028C349.763 67.804 349.523 66.76 349.043 65.896C348.563 65.008 347.915 64.336 347.099 63.88C346.283 63.4 345.407 63.16 344.471 63.16C343.535 63.16 342.671 63.388 341.879 63.844C341.087 64.3 340.439 64.972 339.935 65.86C339.455 66.724 339.215 67.756 339.215 68.956C339.215 70.156 339.455 71.212 339.935 72.124C340.439 73.012 341.087 73.696 341.879 74.176C342.695 74.656 343.559 74.896 344.471 74.896C345.407 74.896 346.283 74.668 347.099 74.212C347.915 73.732 348.563 73.06 349.043 72.196C349.523 71.308 349.763 70.252 349.763 69.028ZM378.301 68.596C378.301 69.316 378.253 69.964 378.157 70.54H363.577C363.697 71.98 364.201 73.108 365.089 73.924C365.977 74.74 367.069 75.148 368.365 75.148C370.237 75.148 371.569 74.344 372.361 72.736H377.797C377.221 74.656 376.117 76.24 374.485 77.488C372.853 78.712 370.849 79.324 368.473 79.324C366.553 79.324 364.825 78.904 363.289 78.064C361.777 77.2 360.589 75.988 359.725 74.428C358.885 72.868 358.465 71.068 358.465 69.028C358.465 66.964 358.885 65.152 359.725 63.592C360.565 62.032 361.741 60.832 363.253 59.992C364.765 59.152 366.505 58.732 368.473 58.732C370.369 58.732 372.061 59.14 373.549 59.956C375.061 60.772 376.225 61.936 377.041 63.448C377.881 64.936 378.301 66.652 378.301 68.596ZM373.081 67.156C373.057 65.86 372.589 64.828 371.677 64.06C370.765 63.268 369.649 62.872 368.329 62.872C367.081 62.872 366.025 63.256 365.161 64.024C364.321 64.768 363.805 65.812 363.613 67.156H373.081ZM386.588 74.86H395.48V79H380.864V74.932L389.576 63.196H380.9V59.056H395.372V63.124L386.588 74.86ZM430.533 53.872L421.317 79H415.197L405.981 53.872H411.381L418.293 73.852L425.169 53.872H430.533ZM432.762 73.888V69.928L444.534 53.08H450.402V69.496H453.57V73.888H450.402V79H445.362V73.888H432.762ZM445.686 58.48L438.306 69.496H445.686V58.48Z" fill="white"/>
</g>
<mask id="mask1_402_45" style="mask-type:alpha" maskUnits="userSpaceOnUse" x="0" y="279" width="705" height="124">
<rect y="279" width="705" height="124" rx="8" fill="#385371"/>
</mask>
<g mask="url(#mask1_402_45)">
<path fill-rule="evenodd" clip-rule="evenodd" d="M737.575 411.062L737.575 571.479C737.575 575.897 733.993 579.479 729.575 579.479H-0.579601C-4.99788 579.479 -8.57959 575.897 -8.57959 571.479V508.453C-8.57959 506.255 -9.49458 504.164 -11.0423 502.603C-31.7371 481.73 -44.7188 451.695 -44.7188 418.314C-44.7188 355.272 1.57976 304.166 58.6919 304.166C81.8933 304.166 103.31 312.6 120.563 326.843C124.064 329.732 129.257 329.539 132.566 326.432C148.329 311.636 168.753 302.707 191.066 302.707C215.904 302.707 238.402 313.77 254.734 331.676C257.065 334.231 260.686 335.206 263.997 334.205C271.618 331.9 279.641 330.67 287.924 330.67C305.163 330.67 321.273 335.999 334.978 345.245C338.841 347.851 344.162 347.132 347.164 343.568C363.662 323.981 387.21 311.727 413.35 311.727C445.921 311.727 474.467 330.752 490.365 359.283C492.864 363.767 498.745 365.343 503.195 362.785C515.665 355.616 529.84 351.564 544.872 351.564C552.013 351.564 558.96 352.478 565.623 354.207C569.282 355.156 573.194 353.737 575.343 350.627C591.85 326.742 617.906 311.329 647.223 311.329C696.566 311.329 736.67 354.99 737.56 409.221C737.56 409.225 737.563 409.228 737.567 409.228C737.571 409.228 737.575 409.232 737.575 409.236L737.575 411.062Z" fill="#0F7151" fill-opacity="0.4"/>
</g>
<path d="M247.352 305.964H250.768V307H246.078V297.242H247.352V305.964ZM251.645 303.136C251.645 302.352 251.804 301.666 252.121 301.078C252.438 300.481 252.872 300.019 253.423 299.692C253.983 299.365 254.604 299.202 255.285 299.202C255.957 299.202 256.54 299.347 257.035 299.636C257.53 299.925 257.898 300.289 258.141 300.728V299.328H259.429V307H258.141V305.572C257.889 306.02 257.511 306.393 257.007 306.692C256.512 306.981 255.934 307.126 255.271 307.126C254.59 307.126 253.974 306.958 253.423 306.622C252.872 306.286 252.438 305.815 252.121 305.208C251.804 304.601 251.645 303.911 251.645 303.136ZM258.141 303.15C258.141 302.571 258.024 302.067 257.791 301.638C257.558 301.209 257.24 300.882 256.839 300.658C256.447 300.425 256.013 300.308 255.537 300.308C255.061 300.308 254.627 300.42 254.235 300.644C253.843 300.868 253.53 301.195 253.297 301.624C253.064 302.053 252.947 302.557 252.947 303.136C252.947 303.724 253.064 304.237 253.297 304.676C253.53 305.105 253.843 305.437 254.235 305.67C254.627 305.894 255.061 306.006 255.537 306.006C256.013 306.006 256.447 305.894 256.839 305.67C257.24 305.437 257.558 305.105 257.791 304.676C258.024 304.237 258.141 303.729 258.141 303.15ZM262.856 300.574C263.08 300.135 263.397 299.795 263.808 299.552C264.228 299.309 264.737 299.188 265.334 299.188V300.504H264.998C263.57 300.504 262.856 301.279 262.856 302.828V307H261.582V299.328H262.856V300.574ZM266.329 303.136C266.329 302.352 266.487 301.666 266.805 301.078C267.122 300.481 267.556 300.019 268.107 299.692C268.667 299.365 269.287 299.202 269.969 299.202C270.641 299.202 271.224 299.347 271.719 299.636C272.213 299.925 272.582 300.289 272.825 300.728V299.328H274.113V307H272.825V305.572C272.573 306.02 272.195 306.393 271.691 306.692C271.196 306.981 270.617 307.126 269.955 307.126C269.273 307.126 268.657 306.958 268.107 306.622C267.556 306.286 267.122 305.815 266.805 305.208C266.487 304.601 266.329 303.911 266.329 303.136ZM272.825 303.15C272.825 302.571 272.708 302.067 272.475 301.638C272.241 301.209 271.924 300.882 271.523 300.658C271.131 300.425 270.697 300.308 270.221 300.308C269.745 300.308 269.311 300.42 268.919 300.644C268.527 300.868 268.214 301.195 267.981 301.624C267.747 302.053 267.631 302.557 267.631 303.136C267.631 303.724 267.747 304.237 267.981 304.676C268.214 305.105 268.527 305.437 268.919 305.67C269.311 305.894 269.745 306.006 270.221 306.006C270.697 306.006 271.131 305.894 271.523 305.67C271.924 305.437 272.241 305.105 272.475 304.676C272.708 304.237 272.825 303.729 272.825 303.15ZM279.122 305.824L281.502 299.328H282.86L279.85 307H278.366L275.356 299.328H276.728L279.122 305.824ZM291.113 302.87C291.113 303.113 291.099 303.369 291.071 303.64H284.939C284.986 304.396 285.242 304.989 285.709 305.418C286.185 305.838 286.759 306.048 287.431 306.048C287.982 306.048 288.439 305.922 288.803 305.67C289.176 305.409 289.438 305.063 289.587 304.634H290.959C290.754 305.371 290.343 305.973 289.727 306.44C289.111 306.897 288.346 307.126 287.431 307.126C286.703 307.126 286.05 306.963 285.471 306.636C284.902 306.309 284.454 305.847 284.127 305.25C283.8 304.643 283.637 303.943 283.637 303.15C283.637 302.357 283.796 301.661 284.113 301.064C284.43 300.467 284.874 300.009 285.443 299.692C286.022 299.365 286.684 299.202 287.431 299.202C288.159 299.202 288.803 299.361 289.363 299.678C289.923 299.995 290.352 300.434 290.651 300.994C290.959 301.545 291.113 302.17 291.113 302.87ZM289.797 302.604C289.797 302.119 289.69 301.703 289.475 301.358C289.26 301.003 288.966 300.737 288.593 300.56C288.229 300.373 287.823 300.28 287.375 300.28C286.731 300.28 286.18 300.485 285.723 300.896C285.275 301.307 285.018 301.876 284.953 302.604H289.797ZM294.069 296.64V307H292.795V296.64H294.069ZM303.067 307.098C302.423 307.098 301.844 306.986 301.331 306.762C300.827 306.529 300.43 306.211 300.141 305.81C299.851 305.399 299.702 304.928 299.693 304.396H301.051C301.097 304.853 301.284 305.241 301.611 305.558C301.947 305.866 302.432 306.02 303.067 306.02C303.673 306.02 304.149 305.871 304.495 305.572C304.849 305.264 305.027 304.872 305.027 304.396C305.027 304.023 304.924 303.719 304.719 303.486C304.513 303.253 304.257 303.075 303.949 302.954C303.641 302.833 303.225 302.702 302.703 302.562C302.059 302.394 301.541 302.226 301.149 302.058C300.766 301.89 300.435 301.629 300.155 301.274C299.884 300.91 299.749 300.425 299.749 299.818C299.749 299.286 299.884 298.815 300.155 298.404C300.425 297.993 300.803 297.676 301.289 297.452C301.783 297.228 302.348 297.116 302.983 297.116C303.897 297.116 304.644 297.345 305.223 297.802C305.811 298.259 306.142 298.866 306.217 299.622H304.817C304.77 299.249 304.574 298.922 304.229 298.642C303.883 298.353 303.426 298.208 302.857 298.208C302.325 298.208 301.891 298.348 301.555 298.628C301.219 298.899 301.051 299.281 301.051 299.776C301.051 300.131 301.149 300.42 301.345 300.644C301.55 300.868 301.797 301.041 302.087 301.162C302.385 301.274 302.801 301.405 303.333 301.554C303.977 301.731 304.495 301.909 304.887 302.086C305.279 302.254 305.615 302.52 305.895 302.884C306.175 303.239 306.315 303.724 306.315 304.34C306.315 304.816 306.189 305.264 305.937 305.684C305.685 306.104 305.311 306.445 304.817 306.706C304.322 306.967 303.739 307.098 303.067 307.098ZM307.713 303.15C307.713 302.357 307.872 301.666 308.189 301.078C308.507 300.481 308.945 300.019 309.505 299.692C310.075 299.365 310.723 299.202 311.451 299.202C312.394 299.202 313.169 299.431 313.775 299.888C314.391 300.345 314.797 300.98 314.993 301.792H313.621C313.491 301.325 313.234 300.957 312.851 300.686C312.478 300.415 312.011 300.28 311.451 300.28C310.723 300.28 310.135 300.532 309.687 301.036C309.239 301.531 309.015 302.235 309.015 303.15C309.015 304.074 309.239 304.788 309.687 305.292C310.135 305.796 310.723 306.048 311.451 306.048C312.011 306.048 312.478 305.917 312.851 305.656C313.225 305.395 313.481 305.021 313.621 304.536H314.993C314.788 305.32 314.377 305.95 313.761 306.426C313.145 306.893 312.375 307.126 311.451 307.126C310.723 307.126 310.075 306.963 309.505 306.636C308.945 306.309 308.507 305.847 308.189 305.25C307.872 304.653 307.713 303.953 307.713 303.15ZM320.039 307.126C319.321 307.126 318.667 306.963 318.079 306.636C317.501 306.309 317.043 305.847 316.707 305.25C316.381 304.643 316.217 303.943 316.217 303.15C316.217 302.366 316.385 301.675 316.721 301.078C317.067 300.471 317.533 300.009 318.121 299.692C318.709 299.365 319.367 299.202 320.095 299.202C320.823 299.202 321.481 299.365 322.069 299.692C322.657 300.009 323.119 300.467 323.455 301.064C323.801 301.661 323.973 302.357 323.973 303.15C323.973 303.943 323.796 304.643 323.441 305.25C323.096 305.847 322.625 306.309 322.027 306.636C321.43 306.963 320.767 307.126 320.039 307.126ZM320.039 306.006C320.497 306.006 320.926 305.899 321.327 305.684C321.729 305.469 322.051 305.147 322.293 304.718C322.545 304.289 322.671 303.766 322.671 303.15C322.671 302.534 322.55 302.011 322.307 301.582C322.065 301.153 321.747 300.835 321.355 300.63C320.963 300.415 320.539 300.308 320.081 300.308C319.615 300.308 319.185 300.415 318.793 300.63C318.411 300.835 318.103 301.153 317.869 301.582C317.636 302.011 317.519 302.534 317.519 303.15C317.519 303.775 317.631 304.303 317.855 304.732C318.089 305.161 318.397 305.483 318.779 305.698C319.162 305.903 319.582 306.006 320.039 306.006ZM332.452 299.328V307H331.178V305.866C330.936 306.258 330.595 306.566 330.156 306.79C329.727 307.005 329.251 307.112 328.728 307.112C328.131 307.112 327.594 306.991 327.118 306.748C326.642 306.496 326.264 306.123 325.984 305.628C325.714 305.133 325.578 304.531 325.578 303.822V299.328H326.838V303.654C326.838 304.41 327.03 304.993 327.412 305.404C327.795 305.805 328.318 306.006 328.98 306.006C329.662 306.006 330.198 305.796 330.59 305.376C330.982 304.956 331.178 304.345 331.178 303.542V299.328H332.452ZM336.157 300.378V304.9C336.157 305.273 336.237 305.539 336.395 305.698C336.554 305.847 336.829 305.922 337.221 305.922H338.159V307H337.011C336.302 307 335.77 306.837 335.415 306.51C335.061 306.183 334.883 305.647 334.883 304.9V300.378H333.889V299.328H334.883V297.396H336.157V299.328H338.159V300.378H336.157Z" fill="white"/>
<path d="M366.666 297.242V307H365.392V297.242H366.666ZM372.576 299.188C373.509 299.188 374.265 299.473 374.844 300.042C375.422 300.602 375.712 301.414 375.712 302.478V307H374.452V302.66C374.452 301.895 374.26 301.311 373.878 300.91C373.495 300.499 372.972 300.294 372.31 300.294C371.638 300.294 371.101 300.504 370.7 300.924C370.308 301.344 370.112 301.955 370.112 302.758V307H368.838V299.328H370.112V300.42C370.364 300.028 370.704 299.725 371.134 299.51C371.572 299.295 372.053 299.188 372.576 299.188ZM380.509 307.126C379.921 307.126 379.394 307.028 378.927 306.832C378.46 306.627 378.092 306.347 377.821 305.992C377.55 305.628 377.401 305.213 377.373 304.746H378.689C378.726 305.129 378.904 305.441 379.221 305.684C379.548 305.927 379.972 306.048 380.495 306.048C380.98 306.048 381.363 305.941 381.643 305.726C381.923 305.511 382.063 305.241 382.063 304.914C382.063 304.578 381.914 304.331 381.615 304.172C381.316 304.004 380.854 303.841 380.229 303.682C379.66 303.533 379.193 303.383 378.829 303.234C378.474 303.075 378.166 302.847 377.905 302.548C377.653 302.24 377.527 301.839 377.527 301.344C377.527 300.952 377.644 300.593 377.877 300.266C378.11 299.939 378.442 299.683 378.871 299.496C379.3 299.3 379.79 299.202 380.341 299.202C381.19 299.202 381.876 299.417 382.399 299.846C382.922 300.275 383.202 300.863 383.239 301.61H381.965C381.937 301.209 381.774 300.887 381.475 300.644C381.186 300.401 380.794 300.28 380.299 300.28C379.842 300.28 379.478 300.378 379.207 300.574C378.936 300.77 378.801 301.027 378.801 301.344C378.801 301.596 378.88 301.806 379.039 301.974C379.207 302.133 379.412 302.263 379.655 302.366C379.907 302.459 380.252 302.567 380.691 302.688C381.242 302.837 381.69 302.987 382.035 303.136C382.38 303.276 382.674 303.491 382.917 303.78C383.169 304.069 383.3 304.447 383.309 304.914C383.309 305.334 383.192 305.712 382.959 306.048C382.726 306.384 382.394 306.65 381.965 306.846C381.545 307.033 381.06 307.126 380.509 307.126ZM386.661 300.378V304.9C386.661 305.273 386.741 305.539 386.899 305.698C387.058 305.847 387.333 305.922 387.725 305.922H388.663V307H387.515C386.806 307 386.274 306.837 385.919 306.51C385.565 306.183 385.387 305.647 385.387 304.9V300.378H384.393V299.328H385.387V297.396H386.661V299.328H388.663V300.378H386.661ZM389.731 303.136C389.731 302.352 389.89 301.666 390.207 301.078C390.524 300.481 390.958 300.019 391.509 299.692C392.069 299.365 392.69 299.202 393.371 299.202C394.043 299.202 394.626 299.347 395.121 299.636C395.616 299.925 395.984 300.289 396.227 300.728V299.328H397.515V307H396.227V305.572C395.975 306.02 395.597 306.393 395.093 306.692C394.598 306.981 394.02 307.126 393.357 307.126C392.676 307.126 392.06 306.958 391.509 306.622C390.958 306.286 390.524 305.815 390.207 305.208C389.89 304.601 389.731 303.911 389.731 303.136ZM396.227 303.15C396.227 302.571 396.11 302.067 395.877 301.638C395.644 301.209 395.326 300.882 394.925 300.658C394.533 300.425 394.099 300.308 393.623 300.308C393.147 300.308 392.713 300.42 392.321 300.644C391.929 300.868 391.616 301.195 391.383 301.624C391.15 302.053 391.033 302.557 391.033 303.136C391.033 303.724 391.15 304.237 391.383 304.676C391.616 305.105 391.929 305.437 392.321 305.67C392.713 305.894 393.147 306.006 393.623 306.006C394.099 306.006 394.533 305.894 394.925 305.67C395.326 305.437 395.644 305.105 395.877 304.676C396.11 304.237 396.227 303.729 396.227 303.15ZM403.406 299.188C404.339 299.188 405.095 299.473 405.674 300.042C406.253 300.602 406.542 301.414 406.542 302.478V307H405.282V302.66C405.282 301.895 405.091 301.311 404.708 300.91C404.325 300.499 403.803 300.294 403.14 300.294C402.468 300.294 401.931 300.504 401.53 300.924C401.138 301.344 400.942 301.955 400.942 302.758V307H399.668V299.328H400.942V300.42C401.194 300.028 401.535 299.725 401.964 299.51C402.403 299.295 402.883 299.188 403.406 299.188ZM410.177 300.378V304.9C410.177 305.273 410.256 305.539 410.415 305.698C410.574 305.847 410.849 305.922 411.241 305.922H412.179V307H411.031C410.322 307 409.79 306.837 409.435 306.51C409.08 306.183 408.903 305.647 408.903 304.9V300.378H407.909V299.328H408.903V297.396H410.177V299.328H412.179V300.378H410.177ZM416.817 307.098C416.173 307.098 415.594 306.986 415.081 306.762C414.577 306.529 414.18 306.211 413.891 305.81C413.601 305.399 413.452 304.928 413.443 304.396H414.801C414.847 304.853 415.034 305.241 415.361 305.558C415.697 305.866 416.182 306.02 416.817 306.02C417.423 306.02 417.899 305.871 418.245 305.572C418.599 305.264 418.777 304.872 418.777 304.396C418.777 304.023 418.674 303.719 418.469 303.486C418.263 303.253 418.007 303.075 417.699 302.954C417.391 302.833 416.975 302.702 416.453 302.562C415.809 302.394 415.291 302.226 414.899 302.058C414.516 301.89 414.185 301.629 413.905 301.274C413.634 300.91 413.499 300.425 413.499 299.818C413.499 299.286 413.634 298.815 413.905 298.404C414.175 297.993 414.553 297.676 415.039 297.452C415.533 297.228 416.098 297.116 416.733 297.116C417.647 297.116 418.394 297.345 418.973 297.802C419.561 298.259 419.892 298.866 419.967 299.622H418.567C418.52 299.249 418.324 298.922 417.979 298.642C417.633 298.353 417.176 298.208 416.607 298.208C416.075 298.208 415.641 298.348 415.305 298.628C414.969 298.899 414.801 299.281 414.801 299.776C414.801 300.131 414.899 300.42 415.095 300.644C415.3 300.868 415.547 301.041 415.837 301.162C416.135 301.274 416.551 301.405 417.083 301.554C417.727 301.731 418.245 301.909 418.637 302.086C419.029 302.254 419.365 302.52 419.645 302.884C419.925 303.239 420.065 303.724 420.065 304.34C420.065 304.816 419.939 305.264 419.687 305.684C419.435 306.104 419.061 306.445 418.567 306.706C418.072 306.967 417.489 307.098 416.817 307.098ZM428.939 302.87C428.939 303.113 428.925 303.369 428.897 303.64H422.765C422.812 304.396 423.069 304.989 423.535 305.418C424.011 305.838 424.585 306.048 425.257 306.048C425.808 306.048 426.265 305.922 426.629 305.67C427.003 305.409 427.264 305.063 427.413 304.634H428.785C428.58 305.371 428.169 305.973 427.553 306.44C426.937 306.897 426.172 307.126 425.257 307.126C424.529 307.126 423.876 306.963 423.297 306.636C422.728 306.309 422.28 305.847 421.953 305.25C421.627 304.643 421.463 303.943 421.463 303.15C421.463 302.357 421.622 301.661 421.939 301.064C422.257 300.467 422.7 300.009 423.269 299.692C423.848 299.365 424.511 299.202 425.257 299.202C425.985 299.202 426.629 299.361 427.189 299.678C427.749 299.995 428.179 300.434 428.477 300.994C428.785 301.545 428.939 302.17 428.939 302.87ZM427.623 302.604C427.623 302.119 427.516 301.703 427.301 301.358C427.087 301.003 426.793 300.737 426.419 300.56C426.055 300.373 425.649 300.28 425.201 300.28C424.557 300.28 424.007 300.485 423.549 300.896C423.101 301.307 422.845 301.876 422.779 302.604H427.623ZM430.145 303.136C430.145 302.352 430.304 301.666 430.621 301.078C430.938 300.481 431.372 300.019 431.923 299.692C432.483 299.365 433.104 299.202 433.785 299.202C434.457 299.202 435.04 299.347 435.535 299.636C436.03 299.925 436.398 300.289 436.641 300.728V299.328H437.929V307H436.641V305.572C436.389 306.02 436.011 306.393 435.507 306.692C435.012 306.981 434.434 307.126 433.771 307.126C433.09 307.126 432.474 306.958 431.923 306.622C431.372 306.286 430.938 305.815 430.621 305.208C430.304 304.601 430.145 303.911 430.145 303.136ZM436.641 303.15C436.641 302.571 436.524 302.067 436.291 301.638C436.058 301.209 435.74 300.882 435.339 300.658C434.947 300.425 434.513 300.308 434.037 300.308C433.561 300.308 433.127 300.42 432.735 300.644C432.343 300.868 432.03 301.195 431.797 301.624C431.564 302.053 431.447 302.557 431.447 303.136C431.447 303.724 431.564 304.237 431.797 304.676C432.03 305.105 432.343 305.437 432.735 305.67C433.127 305.894 433.561 306.006 434.037 306.006C434.513 306.006 434.947 305.894 435.339 305.67C435.74 305.437 436.058 305.105 436.291 304.676C436.524 304.237 436.641 303.729 436.641 303.15ZM441.356 300.574C441.58 300.135 441.897 299.795 442.308 299.552C442.728 299.309 443.237 299.188 443.834 299.188V300.504H443.498C442.07 300.504 441.356 301.279 441.356 302.828V307H440.082V299.328H441.356V300.574ZM444.829 303.15C444.829 302.357 444.987 301.666 445.305 301.078C445.622 300.481 446.061 300.019 446.621 299.692C447.19 299.365 447.839 299.202 448.567 299.202C449.509 299.202 450.284 299.431 450.891 299.888C451.507 300.345 451.913 300.98 452.109 301.792H450.737C450.606 301.325 450.349 300.957 449.967 300.686C449.593 300.415 449.127 300.28 448.567 300.28C447.839 300.28 447.251 300.532 446.803 301.036C446.355 301.531 446.131 302.235 446.131 303.15C446.131 304.074 446.355 304.788 446.803 305.292C447.251 305.796 447.839 306.048 448.567 306.048C449.127 306.048 449.593 305.917 449.967 305.656C450.34 305.395 450.597 305.021 450.737 304.536H452.109C451.903 305.32 451.493 305.95 450.877 306.426C450.261 306.893 449.491 307.126 448.567 307.126C447.839 307.126 447.19 306.963 446.621 306.636C446.061 306.309 445.622 305.847 445.305 305.25C444.987 304.653 444.829 303.953 444.829 303.15ZM457.616 299.188C458.195 299.188 458.718 299.314 459.184 299.566C459.651 299.809 460.015 300.177 460.276 300.672C460.547 301.167 460.682 301.769 460.682 302.478V307H459.422V302.66C459.422 301.895 459.231 301.311 458.848 300.91C458.466 300.499 457.943 300.294 457.28 300.294C456.608 300.294 456.072 300.504 455.67 300.924C455.278 301.344 455.082 301.955 455.082 302.758V307H453.808V296.64H455.082V300.42C455.334 300.028 455.68 299.725 456.118 299.51C456.566 299.295 457.066 299.188 457.616 299.188Z" fill="white"/>
<circle cx="353.917" cy="141.917" r="42.917" fill="white"/>
<circle cx="412.917" cy="238.167" r="42.917" fill="white"/>
<circle cx="291.917" cy="238.167" r="42.917" fill="white"/>
<path fill-rule="evenodd" clip-rule="evenodd" d="M316.975 226.406C316.991 226.468 317 226.531 317 226.594V236.468C317 236.595 316.966 236.719 316.902 236.829C316.838 236.939 316.746 237.03 316.636 237.093L308.29 241.864V251.321C308.29 251.579 308.152 251.816 307.927 251.946L290.506 261.904C290.466 261.927 290.423 261.941 290.379 261.956C290.363 261.962 290.347 261.972 290.33 261.976C290.208 262.008 290.08 262.008 289.959 261.976C289.939 261.971 289.921 261.96 289.902 261.953C289.862 261.938 289.82 261.926 289.782 261.904L272.364 251.946C272.254 251.883 272.162 251.792 272.098 251.682C272.034 251.572 272 251.448 272 251.321V221.7C272 221.635 272.009 221.572 272.025 221.511C272.031 221.49 272.044 221.471 272.051 221.451C272.064 221.413 272.077 221.374 272.097 221.339C272.111 221.316 272.131 221.297 272.147 221.275C272.168 221.246 272.187 221.217 272.211 221.191C272.232 221.171 272.259 221.155 272.283 221.137C272.309 221.116 272.333 221.092 272.363 221.075L281.073 216.096C281.183 216.033 281.308 216 281.435 216C281.562 216 281.687 216.033 281.798 216.096L290.507 221.075H290.509C290.538 221.093 290.562 221.116 290.589 221.137C290.612 221.155 290.638 221.171 290.659 221.191C290.685 221.217 290.703 221.246 290.724 221.275C290.74 221.297 290.761 221.316 290.773 221.339C290.794 221.375 290.806 221.413 290.821 221.451C290.828 221.471 290.84 221.49 290.846 221.512C290.863 221.573 290.871 221.636 290.871 221.7V240.201L298.129 236.052V226.594C298.129 226.531 298.138 226.467 298.154 226.406C298.16 226.385 298.172 226.366 298.179 226.345C298.194 226.307 298.207 226.269 298.227 226.234C298.24 226.21 298.26 226.191 298.276 226.17C298.297 226.141 298.315 226.111 298.341 226.086C298.362 226.065 298.388 226.05 298.411 226.032C298.439 226.01 298.462 225.987 298.491 225.97L307.202 220.991C307.313 220.928 307.438 220.894 307.565 220.894C307.692 220.894 307.817 220.928 307.927 220.991L316.637 225.97C316.667 225.988 316.691 226.01 316.718 226.031C316.741 226.049 316.767 226.065 316.788 226.085C316.813 226.111 316.831 226.141 316.853 226.17C316.869 226.191 316.889 226.21 316.902 226.234C316.923 226.269 316.935 226.307 316.949 226.345C316.957 226.366 316.969 226.385 316.975 226.406ZM315.548 236.052V227.841L312.5 229.583L308.29 231.99V240.201L315.549 236.052H315.548ZM306.839 250.905V242.688L302.697 245.037L290.87 251.74V260.033L306.839 250.905ZM273.452 222.946V250.905L289.419 260.032V251.741L281.077 247.053L281.074 247.051L281.071 247.049C281.043 247.033 281.019 247.01 280.993 246.99C280.97 246.972 280.944 246.958 280.924 246.938L280.922 246.935C280.899 246.913 280.882 246.885 280.862 246.859C280.844 246.835 280.823 246.814 280.808 246.789L280.807 246.787C280.791 246.76 280.781 246.727 280.769 246.697C280.757 246.67 280.742 246.644 280.735 246.616C280.726 246.581 280.724 246.545 280.72 246.509C280.717 246.482 280.709 246.455 280.709 246.428V227.096L276.5 224.688L273.452 222.946ZM281.436 217.552L274.18 221.7L281.434 225.848L288.69 221.699L281.434 217.552H281.436ZM285.21 243.437L289.419 241.031V222.946L286.372 224.688L282.161 227.096V245.18L285.21 243.437ZM307.565 222.447L300.309 226.594L307.565 230.742L314.82 226.594L307.565 222.447ZM306.839 231.99L302.628 229.583L299.581 227.841V236.052L303.79 238.458L306.839 240.201V231.99ZM290.144 250.493L300.786 244.46L306.106 241.446L298.856 237.301L290.508 242.073L282.9 246.422L290.144 250.493Z" fill="#FF2D20"/>
<g clip-path="url(#clip1_402_45)">
<path d="M412.968 234.754C414.059 234.716 415.139 234.511 416.169 234.147L418.025 237.34L419.274 239.575C419.438 239.873 419.679 240.121 419.972 240.295C420.264 240.469 420.598 240.562 420.938 240.565C421.285 240.564 421.626 240.476 421.93 240.31C422.152 240.178 422.345 240.005 422.499 239.798C422.653 239.592 422.764 239.358 422.826 239.108C422.889 238.859 422.901 238.6 422.863 238.346C422.824 238.092 422.736 237.848 422.603 237.628L421.354 235.393L419.498 232.2C420.641 231.229 421.563 230.026 422.203 228.672C422.844 227.317 423.187 225.842 423.211 224.345C423.228 222.998 422.977 221.661 422.474 220.411C421.971 219.16 421.225 218.022 420.279 217.06C419.333 216.099 418.205 215.333 416.962 214.808C415.718 214.283 414.382 214.008 413.032 214C411.678 214.017 410.341 214.299 409.097 214.831C407.853 215.363 406.726 216.135 405.781 217.101C404.835 218.068 404.09 219.211 403.588 220.465C403.085 221.719 402.835 223.059 402.852 224.409C402.835 225.751 403.084 227.083 403.583 228.329C404.082 229.575 404.822 230.711 405.762 231.671C406.701 232.632 407.821 233.399 409.057 233.928C410.294 234.457 411.622 234.737 412.968 234.754ZM412.968 217.927C414.234 217.927 415.472 218.302 416.524 219.004C417.577 219.705 418.398 220.703 418.882 221.869C419.367 223.036 419.494 224.32 419.247 225.559C419 226.798 418.39 227.936 417.495 228.829C416.599 229.722 415.458 230.33 414.217 230.576C412.975 230.823 411.687 230.696 410.518 230.213C409.348 229.73 408.348 228.911 407.645 227.861C406.941 226.811 406.566 225.576 406.566 224.313C406.566 222.62 407.24 220.995 408.441 219.798C409.641 218.6 411.27 217.927 412.968 217.927Z" fill="#42B883"/>
<path d="M427.853 240.278C425.476 240.313 423.185 241.169 421.369 242.7C419.554 244.231 418.327 246.343 417.898 248.675H411.752C411.245 248.692 410.765 248.904 410.412 249.268C410.06 249.631 409.863 250.117 409.863 250.623C409.863 251.126 410.061 251.608 410.414 251.966C410.768 252.325 411.248 252.53 411.752 252.539H417.898C418.297 254.415 419.221 256.14 420.562 257.514C421.903 258.889 423.607 259.856 425.477 260.304C427.347 260.752 429.305 260.663 431.126 260.047C432.947 259.43 434.556 258.312 435.766 256.822C436.976 255.331 437.738 253.529 437.964 251.625C438.19 249.72 437.871 247.79 437.043 246.059C436.215 244.328 434.912 242.867 433.286 241.843C431.66 240.82 429.776 240.277 427.853 240.278ZM427.853 257.073C426.587 257.073 425.349 256.698 424.296 255.996C423.243 255.295 422.423 254.297 421.938 253.131C421.454 251.964 421.327 250.68 421.574 249.441C421.821 248.202 422.431 247.064 423.326 246.171C424.221 245.278 425.362 244.67 426.604 244.424C427.846 244.177 429.133 244.304 430.303 244.787C431.473 245.27 432.473 246.089 433.176 247.139C433.88 248.189 434.255 249.424 434.255 250.687C434.255 252.38 433.581 254.005 432.38 255.202C431.179 256.4 429.551 257.073 427.853 257.073Z" fill="black"/>
<path d="M406.63 239.543L407.911 237.308C408.134 236.862 408.186 236.348 408.057 235.866C407.927 235.384 407.624 234.965 407.207 234.69C406.76 234.434 406.231 234.365 405.733 234.496C405.236 234.628 404.81 234.95 404.55 235.393L403.301 237.628L401.477 240.821C400.446 240.463 399.366 240.269 398.276 240.246C395.621 240.393 393.123 241.549 391.295 243.476C389.468 245.403 388.449 247.954 388.449 250.607C388.449 253.26 389.468 255.811 391.295 257.738C393.123 259.665 395.621 260.821 398.276 260.968C400.367 260.899 402.39 260.203 404.08 258.973C405.771 257.742 407.051 256.033 407.755 254.067C408.459 252.101 408.555 249.969 408.029 247.949C407.503 245.928 406.38 244.112 404.806 242.736L406.63 239.543ZM398.116 257.073C396.418 257.073 394.789 256.4 393.589 255.202C392.388 254.005 391.714 252.38 391.714 250.687C391.714 248.993 392.388 247.369 393.589 246.171C394.789 244.974 396.418 244.301 398.116 244.301C399.814 244.301 401.442 244.974 402.643 246.171C403.843 247.369 404.518 248.993 404.518 250.687C404.518 252.38 403.843 254.005 402.643 255.202C401.442 256.4 399.814 257.073 398.116 257.073Z" fill="black"/>
</g>
<path d="M343.635 125.952H347.053C348.318 125.952 349.341 126.984 349.341 128.262C349.341 129.539 348.318 130.571 347.053 130.571H343.635C342.37 130.571 341.347 129.539 341.347 128.262C341.347 126.984 342.396 125.952 343.635 125.952Z" fill="url(#paint0_linear_402_45)"/>
<path d="M335.101 144.186H345.922C347.187 144.186 348.21 145.219 348.21 146.496C348.21 147.773 347.187 148.806 345.922 148.806H335.101C333.836 148.806 332.813 147.773 332.813 146.496C332.814 145.164 333.836 144.186 335.101 144.186Z" fill="url(#paint1_linear_402_45)"/>
<path d="M370.713 125.952H357.766H353.89C352.625 125.952 351.602 126.984 351.602 128.262C351.602 129.349 352.409 130.272 353.432 130.517H356.743C356.797 130.517 356.904 130.517 356.958 130.517C357.012 130.517 357.12 130.517 357.174 130.517C358.196 130.734 359.004 131.658 359.004 132.773C359.004 134.05 357.981 135.082 356.716 135.082H356.608H356.178H342.046C341.023 135.3 340.216 136.224 340.216 137.338C340.216 138.452 341.023 139.349 342.046 139.594H355.37H356.635H357.9C359.165 139.594 360.188 140.626 360.188 141.903C360.188 143.181 359.165 144.213 357.9 144.213H355.505H354.59H352.302C351.279 144.431 350.471 145.355 350.471 146.469C350.471 147.583 351.279 148.48 352.302 148.724H353.782H354.455C354.617 148.724 354.751 148.724 354.913 148.779C354.966 148.779 354.966 148.779 355.02 148.833C355.128 148.833 355.182 148.887 355.316 148.887C355.37 148.887 355.424 148.942 355.478 148.942C355.532 148.996 355.639 148.996 355.693 149.05C355.747 149.105 355.801 149.105 355.855 149.159C355.909 149.214 355.962 149.268 356.016 149.322C356.07 149.377 356.07 149.377 356.124 149.431C356.178 149.485 356.232 149.54 356.285 149.594C356.339 149.648 356.339 149.703 356.393 149.757C356.447 149.811 356.447 149.92 356.501 149.974C356.501 150.029 356.555 150.083 356.555 150.137C356.608 150.246 356.608 150.301 356.608 150.436C356.608 150.491 356.608 150.545 356.662 150.545C356.662 150.654 356.716 150.844 356.716 151.007C356.716 152.284 355.693 153.317 354.428 153.317H354.32H352.948H332.814C332.652 153.317 332.518 153.317 332.356 153.263H329.395C328.13 153.263 327.107 154.295 327.107 155.572C327.107 156.85 328.13 157.882 329.395 157.882H352.194H359.892L361.992 145.844H363.822L368.263 157.882H376.931L371.87 145.164C377.011 143.724 379.865 139.92 380.537 135.952C381.56 130.436 378.465 125.952 370.713 125.952ZM372.651 136.305C372.193 138.778 370.605 140.327 367.698 140.327H362.907L364.28 132.338H369.071C372.032 132.338 373.108 133.887 372.651 136.305Z" fill="url(#paint2_linear_402_45)" fill-opacity="0.95"/>
<defs>
<filter id="filter0_f_402_45" x="-12.9434" y="-111.217" width="989.975" height="731.221" filterUnits="userSpaceOnUse" color-interpolation-filters="sRGB">
<feFlood flood-opacity="0" result="BackgroundImageFix"/>
<feBlend mode="normal" in="SourceGraphic" in2="BackgroundImageFix" result="shape"/>
<feGaussianBlur stdDeviation="125" result="effect1_foregroundBlur_402_45"/>
</filter>
<linearGradient id="paint0_linear_402_45" x1="345.35" y1="125.945" x2="345.35" y2="130.549" gradientUnits="userSpaceOnUse">
<stop stop-color="#27AE60"/>
<stop offset="1" stop-color="#34CDB1"/>
</linearGradient>
<linearGradient id="paint1_linear_402_45" x1="340.504" y1="144.189" x2="340.504" y2="148.794" gradientUnits="userSpaceOnUse">
<stop stop-color="#27AE60"/>
<stop offset="1" stop-color="#34CDB1"/>
</linearGradient>
<linearGradient id="paint2_linear_402_45" x1="353.911" y1="125.945" x2="353.911" y2="157.829" gradientUnits="userSpaceOnUse">
<stop stop-color="#202F60"/>
<stop offset="1" stop-color="#205060"/>
</linearGradient>
<clipPath id="clip0_402_45">
<rect width="705" height="403" rx="8" fill="white"/>
</clipPath>
<clipPath id="clip1_402_45">
<rect width="50" height="47" fill="white" transform="translate(388 214)"/>
</clipPath>
</defs>
</svg>
